<svg width="63" height="31" viewBox="0 0 63 31" fill="none" xmlns="http://www.w3.org/2000/svg">
<path d="M3.31745 0.76848C2.28565 0.874914 1.36169 1.24124 0.748827 1.78688C0.135966 2.33252 -0.115589 3.01277 0.0494994 3.67798C0.214588 4.3432 0.782798 4.93888 1.62913 5.334C2.47546 5.72912 3.53059 5.8913 4.56239 5.78486H16.2337L16.9339 7.03896L20.1241 13.3094L23.3142 19.5799C23.6255 20.2321 24.9482 20.834 25.9597 20.834H53.1927C54.282 20.834 55.5269 20.2321 55.8382 19.5799L62.1406 7.03896C62.4519 6.38683 61.985 5.78486 60.8957 5.78486H26.3488L23.392 2.17307C23.0771 1.75851 22.5909 1.40802 21.9868 1.1602C21.3827 0.912372 20.6843 0.776824 19.9685 0.76848L4.40677 0.76848C4.17382 0.754908 3.93945 0.754908 3.7065 0.76848C3.55102 0.762455 3.39512 0.762455 3.23965 0.76848L3.31745 0.76848ZM27.9049 25.8504C25.7263 25.8504 24.0145 26.954 24.0145 28.3586C24.0145 29.7632 25.7263 30.8668 27.9049 30.8668C30.0836 30.8668 31.7953 29.7632 31.7953 28.3586C31.7953 26.954 30.0836 25.8504 27.9049 25.8504ZM51.2475 25.8504C49.0688 25.8504 47.357 26.954 47.357 28.3586C47.357 29.7632 49.0688 30.8668 51.2475 30.8668C53.4261 30.8668 55.1379 29.7632 55.1379 28.3586C55.1379 26.954 53.4261 25.8504 51.2475 25.8504Z" fill="#ADA2A2"/>
</svg>
