<svg width="63" height="45" viewBox="0 0 63 45" fill="none" xmlns="http://www.w3.org/2000/svg">
<path d="M3.31745 0.0150595C2.28565 0.172528 1.36169 0.714511 0.748827 1.52178C0.135966 2.32904 -0.115589 3.33547 0.0494994 4.31965C0.214588 5.30383 0.782798 6.18514 1.62913 6.76971C2.47546 7.35429 3.53059 7.59423 4.56239 7.43676H16.2337L16.9339 9.29219L20.1241 18.5693L23.3142 27.8464C23.6255 28.8113 24.9482 29.7019 25.9597 29.7019H53.1927C54.282 29.7019 55.5269 28.8113 55.8382 27.8464L62.1406 9.29219C62.4519 8.32736 61.985 7.43676 60.8957 7.43676H26.3488L23.392 2.09314C23.0771 1.4798 22.5909 0.961257 21.9868 0.594602C21.3827 0.227947 20.6843 0.0274056 19.9685 0.0150595L4.40677 0.0150595C4.17382 -0.00501983 3.93945 -0.00501984 3.7065 0.0150595C3.55102 0.00614543 3.39512 0.00614543 3.23965 0.0150595L3.31745 0.0150595ZM27.9049 37.1236C25.7263 37.1236 24.0145 38.7563 24.0145 40.8344C24.0145 42.9125 25.7263 44.5453 27.9049 44.5453C30.0836 44.5453 31.7953 42.9125 31.7953 40.8344C31.7953 38.7563 30.0836 37.1236 27.9049 37.1236ZM51.2475 37.1236C49.0688 37.1236 47.357 38.7563 47.357 40.8344C47.357 42.9125 49.0688 44.5453 51.2475 44.5453C53.4261 44.5453 55.1379 42.9125 55.1379 40.8344C55.1379 38.7563 53.4261 37.1236 51.2475 37.1236Z" fill="#ADA2A2"/>
</svg>
