<svg width="60" height="78" viewBox="0 0 60 78" fill="none" xmlns="http://www.w3.org/2000/svg">
<path d="M3.15715 0.0584043C2.1752 0.33213 1.29589 1.27425 0.712642 2.67752C0.129396 4.08078 -0.110004 5.83023 0.0471075 7.54102C0.204219 9.25181 0.744971 10.7838 1.55041 11.7999C2.35584 12.8161 3.35998 13.2332 4.34192 12.9595H15.4492L16.1156 16.1847L19.1516 32.3111L22.1876 48.4374C22.4838 50.1145 23.7426 51.6627 24.7053 51.6627H50.6223C51.659 51.6627 52.8437 50.1145 53.1399 48.4374L59.1379 16.1847C59.4341 14.5076 58.9898 12.9595 57.9531 12.9595H25.0755L22.2617 3.6707C21.962 2.60455 21.4992 1.70317 20.9244 1.06582C20.3495 0.428465 19.6848 0.0798654 19.0035 0.0584043L4.19383 0.0584043C3.97213 0.0235006 3.74908 0.0235006 3.52739 0.0584043C3.37943 0.0429091 3.23106 0.0429091 3.0831 0.0584043L3.15715 0.0584043ZM26.5565 64.5637C24.4831 64.5637 22.8541 67.4019 22.8541 71.0142C22.8541 74.6265 24.4831 77.4648 26.5565 77.4648C28.6299 77.4648 30.2589 74.6265 30.2589 71.0142C30.2589 67.4019 28.6299 64.5637 26.5565 64.5637ZM48.7711 64.5637C46.6977 64.5637 45.0686 67.4019 45.0686 71.0142C45.0686 74.6265 46.6977 77.4648 48.7711 77.4648C50.8444 77.4648 52.4735 74.6265 52.4735 71.0142C52.4735 67.4019 50.8444 64.5637 48.7711 64.5637Z" fill="#ADA2A2"/>
</svg>
