<svg width="63" height="23" viewBox="0 0 63 23" fill="none" xmlns="http://www.w3.org/2000/svg">
<path d="M3.31745 0.378725C2.28565 0.455325 1.36169 0.718971 0.748827 1.11166C0.135966 1.50436 -0.115589 1.99393 0.0494994 2.47268C0.214588 2.95143 0.782798 3.38014 1.62913 3.66451C2.47546 3.94887 3.53059 4.06559 4.56239 3.98899H16.2337L16.9339 4.89156L20.1241 9.40439L23.3142 13.9172C23.6255 14.3866 24.9482 14.8198 25.9597 14.8198H53.1927C54.282 14.8198 55.5269 14.3866 55.8382 13.9172L62.1406 4.89156C62.4519 4.42222 61.985 3.98899 60.8957 3.98899H26.3488L23.392 1.3896C23.0771 1.09124 22.5909 0.838999 21.9868 0.660641C21.3827 0.482283 20.6843 0.38473 19.9685 0.378725L4.40677 0.378725C4.17382 0.368957 3.93945 0.368957 3.7065 0.378725C3.55102 0.374388 3.39512 0.374388 3.23965 0.378725L3.31745 0.378725ZM27.9049 18.4301C25.7263 18.4301 24.0145 19.2243 24.0145 20.2352C24.0145 21.2461 25.7263 22.0403 27.9049 22.0403C30.0836 22.0403 31.7953 21.2461 31.7953 20.2352C31.7953 19.2243 30.0836 18.4301 27.9049 18.4301ZM51.2475 18.4301C49.0688 18.4301 47.357 19.2243 47.357 20.2352C47.357 21.2461 49.0688 22.0403 51.2475 22.0403C53.4261 22.0403 55.1379 21.2461 55.1379 20.2352C55.1379 19.2243 53.4261 18.4301 51.2475 18.4301Z" fill="#ADA2A2"/>
</svg>
