<svg width="63" height="22" viewBox="0 0 63 22" fill="none" xmlns="http://www.w3.org/2000/svg">
<path d="M3.31745 0.00732565C2.28565 0.0839258 1.36169 0.347572 0.748827 0.740264C0.135966 1.13296 -0.115589 1.62253 0.0494994 2.10128C0.214588 2.58003 0.782798 3.00874 1.62913 3.29311C2.47546 3.57747 3.53059 3.69419 4.56239 3.61759H16.2337L16.9339 4.52016L20.1241 9.03299L23.3142 13.5458C23.6255 14.0152 24.9482 14.4484 25.9597 14.4484H53.1927C54.282 14.4484 55.5269 14.0152 55.8382 13.5458L62.1406 4.52016C62.4519 4.05082 61.985 3.61759 60.8957 3.61759H26.3488L23.392 1.0182C23.0771 0.719845 22.5909 0.467601 21.9868 0.289242C21.3827 0.110884 20.6843 0.0133314 19.9685 0.00732565L4.40677 0.00732565C4.17382 -0.00244188 3.93945 -0.00244188 3.7065 0.00732565C3.55102 0.00298943 3.39512 0.00298943 3.23965 0.00732565L3.31745 0.00732565ZM27.9049 18.0587C25.7263 18.0587 24.0145 18.8529 24.0145 19.8638C24.0145 20.8747 25.7263 21.6689 27.9049 21.6689C30.0836 21.6689 31.7953 20.8747 31.7953 19.8638C31.7953 18.8529 30.0836 18.0587 27.9049 18.0587ZM51.2475 18.0587C49.0688 18.0587 47.357 18.8529 47.357 19.8638C47.357 20.8747 49.0688 21.6689 51.2475 21.6689C53.4261 21.6689 55.1379 20.8747 55.1379 19.8638C55.1379 18.8529 53.4261 18.0587 51.2475 18.0587Z" fill="#ADA2A2"/>
</svg>
